<?xml version="1.0" encoding="UTF-8" standalone="no"?>
<!-- Created with Inkscape (http://www.inkscape.org/) -->

<svg
   xmlns:dc="http://purl.org/dc/elements/1.1/"
   xmlns:cc="http://creativecommons.org/ns#"
   xmlns:rdf="http://www.w3.org/1999/02/22-rdf-syntax-ns#"
   xmlns:svg="http://www.w3.org/2000/svg"
   xmlns="http://www.w3.org/2000/svg"
   xmlns:sodipodi="http://sodipodi.sourceforge.net/DTD/sodipodi-0.dtd"
   xmlns:inkscape="http://www.inkscape.org/namespaces/inkscape"
   width="322.9375"
   height="105.4375"
   id="svg10038"
   version="1.1"
   inkscape:version="0.48.2 r9819"
   sodipodi:docname="New document 19">
  <defs
     id="defs10040" />
  <sodipodi:namedview
     id="base"
     pagecolor="#ffffff"
     bordercolor="#666666"
     borderopacity="1.0"
     inkscape:pageopacity="0.0"
     inkscape:pageshadow="2"
     inkscape:zoom="1.4"
     inkscape:cx="241.70834"
     inkscape:cy="-146.31406"
     inkscape:document-units="px"
     inkscape:current-layer="layer1"
     showgrid="false"
     fit-margin-top="0"
     fit-margin-left="0"
     fit-margin-right="0"
     fit-margin-bottom="0"
     inkscape:window-width="1600"
     inkscape:window-height="1171"
     inkscape:window-x="1366"
     inkscape:window-y="0"
     inkscape:window-maximized="1" />
  <metadata
     id="metadata10043">
    <rdf:RDF>
      <cc:Work
         rdf:about="">
        <dc:format>image/svg+xml</dc:format>
        <dc:type
           rdf:resource="http://purl.org/dc/dcmitype/StillImage" />
        <dc:title></dc:title>
      </cc:Work>
    </rdf:RDF>
  </metadata>
  <g
     inkscape:label="Layer 1"
     inkscape:groupmode="layer"
     id="layer1"
     transform="translate(-309.96875,-65.34375)">
    <path
       inkscape:connector-curvature="0"
       style="fill:#cccccc;fill-opacity:1;fill-rule:evenodd;stroke:#000000;stroke-width:0.52981108;stroke-linecap:butt;stroke-linejoin:miter;stroke-miterlimit:10;stroke-opacity:1"
       d="m 353.92646,141.92574 26.49055,0 0,5.29811 -26.49055,0 z m 0,0"
       id="path588-7" />
    <path
       inkscape:connector-curvature="0"
       style="fill:#cccccc;fill-opacity:1;fill-rule:evenodd;stroke:#000000;stroke-width:0.52981108;stroke-linecap:butt;stroke-linejoin:round;stroke-miterlimit:10;stroke-opacity:1"
       d="m 326.37629,88.944629 81.5909,0 c 0.87747,0 1.58944,0.711962 1.58944,1.589437 l 0,49.802234 c 0,0.87748 -0.71197,1.58944 -1.58944,1.58944 l -81.5909,0 c -0.8775,0 -1.58944,-0.71194 -1.58944,-1.58944 l 0,-49.802234 c 0,-0.877512 0.71194,-1.589437 1.58944,-1.589437"
       id="path590-9" />
    <path
       inkscape:connector-curvature="0"
       style="fill:#ffffff;fill-opacity:1;fill-rule:evenodd;stroke:#000000;stroke-width:0.52981108;stroke-linecap:butt;stroke-linejoin:miter;stroke-miterlimit:10;stroke-opacity:1"
       d="m 330.08496,94.242741 74.17355,0 0,42.384889 -74.17355,0 z m 0,0"
       id="path592-7" />
    <path
       inkscape:connector-curvature="0"
       style="fill:#cccccc;fill-opacity:1;fill-rule:evenodd;stroke:#000000;stroke-width:0.52981108;stroke-linecap:butt;stroke-linejoin:miter;stroke-miterlimit:10;stroke-opacity:1"
       d="m 340.68119,147.22385 52.9811,0 0,5.2981 -52.9811,0 z m 0,0"
       id="path594-5" />
    <path
       inkscape:connector-curvature="0"
       style="fill:none;stroke:#000000;stroke-width:0.52981108;stroke-linecap:butt;stroke-linejoin:miter;stroke-miterlimit:10;stroke-opacity:1"
       d="m 352.91859,110.42889 c 0,3.21404 -4.82005,3.21404 -4.82005,0 0,-3.21405 4.82005,-3.21405 4.82005,0"
       id="path596-9" />
    <path
       inkscape:connector-curvature="0"
       style="fill:none;stroke:#000000;stroke-width:0.52981108;stroke-linecap:butt;stroke-linejoin:miter;stroke-miterlimit:10;stroke-opacity:1"
       d="m 371.80138,113.24144 c 0,3.21198 -4.82212,3.21198 -4.82212,0 0,-3.21406 4.82212,-3.21406 4.82212,0"
       id="path598-5" />
    <path
       inkscape:connector-curvature="0"
       style="fill:none;stroke:#000000;stroke-width:0.52981108;stroke-linecap:butt;stroke-linejoin:miter;stroke-miterlimit:10;stroke-opacity:1"
       d="m 360.55116,116.05192 c 0,3.21405 -4.82002,3.21405 -4.82002,0 0,-3.21404 4.82002,-3.21404 4.82002,0"
       id="path600-8" />
    <path
       inkscape:connector-curvature="0"
       style="fill:none;stroke:#000000;stroke-width:0.52981108;stroke-linecap:butt;stroke-linejoin:miter;stroke-miterlimit:10;stroke-opacity:1"
       d="m 371.39988,122.8815 c 0,3.21407 -4.82212,3.21407 -4.82212,0 0,-3.21403 4.82212,-3.21403 4.82212,0"
       id="path602-3" />
    <path
       inkscape:connector-curvature="0"
       style="fill:none;stroke:#000000;stroke-width:0.52981108;stroke-linecap:butt;stroke-linejoin:miter;stroke-miterlimit:10;stroke-opacity:1"
       d="m 380.23696,110.02738 c 0,3.21199 -4.82211,3.21199 -4.82211,0 0,-3.21404 4.82211,-3.21404 4.82211,0"
       id="path604-1" />
    <path
       inkscape:connector-curvature="0"
       style="fill:none;stroke:#000000;stroke-width:0.52981108;stroke-linecap:butt;stroke-linejoin:miter;stroke-miterlimit:10;stroke-opacity:1"
       d="m 354.52664,122.48002 c 0,3.21405 -4.82211,3.21405 -4.82211,0 0,-3.21405 4.82211,-3.21405 4.82211,0"
       id="path606-0" />
    <path
       inkscape:connector-curvature="0"
       style="fill:none;stroke:#000000;stroke-width:0.52981108;stroke-linecap:butt;stroke-linejoin:miter;stroke-miterlimit:10;stroke-opacity:1"
       d="m 384.6555,116.45342 c 0,3.21405 -4.82004,3.21405 -4.82004,0 0,-3.21198 4.82004,-3.21198 4.82004,0"
       id="path608-8" />
    <path
       inkscape:connector-curvature="0"
       style="fill:none;stroke:#000000;stroke-width:0.52981108;stroke-linecap:butt;stroke-linejoin:miter;stroke-miterlimit:10;stroke-opacity:1"
       d="m 381.44145,124.4875 c 0,3.21405 -4.82004,3.21405 -4.82004,0 0,-3.21197 4.82004,-3.21197 4.82004,0"
       id="path610-2" />
    <path
       inkscape:connector-curvature="0"
       style="fill:none;stroke:#000000;stroke-width:0.52981108;stroke-linecap:butt;stroke-linejoin:miter;stroke-miterlimit:10;stroke-opacity:1"
       d="m 352.11559,112.03488 4.01704,2.81255"
       id="path612-7" />
    <path
       inkscape:connector-curvature="0"
       style="fill:none;stroke:#000000;stroke-width:0.52981108;stroke-linecap:butt;stroke-linejoin:miter;stroke-miterlimit:10;stroke-opacity:1"
       d="m 356.53619,118.06148 -2.81255,2.81255"
       id="path614-9" />
    <path
       inkscape:connector-curvature="0"
       style="fill:none;stroke:#000000;stroke-width:0.52981108;stroke-linecap:butt;stroke-linejoin:miter;stroke-miterlimit:10;stroke-opacity:1"
       d="m 360.55324,115.24893 6.42602,-1.2045"
       id="path616-3" />
    <path
       inkscape:connector-curvature="0"
       style="fill:none;stroke:#000000;stroke-width:0.52981108;stroke-linecap:butt;stroke-linejoin:miter;stroke-miterlimit:10;stroke-opacity:1"
       d="m 360.55324,116.05192 6.82754,-1.20449"
       id="path618-9" />
    <path
       inkscape:connector-curvature="0"
       style="fill:none;stroke:#000000;stroke-width:0.52981108;stroke-linecap:butt;stroke-linejoin:miter;stroke-miterlimit:10;stroke-opacity:1"
       d="m 371.79931,112.43637 3.61554,-1.60598"
       id="path620-4" />
    <path
       inkscape:connector-curvature="0"
       style="fill:none;stroke:#000000;stroke-width:0.52981108;stroke-linecap:butt;stroke-linejoin:miter;stroke-miterlimit:10;stroke-opacity:1"
       d="m 379.43189,112.03488 1.60806,2.41106"
       id="path622-4" />
    <path
       inkscape:connector-curvature="0"
       style="fill:none;stroke:#000000;stroke-width:0.52981108;stroke-linecap:butt;stroke-linejoin:miter;stroke-miterlimit:10;stroke-opacity:1"
       d="m 381.44145,118.86448 -1.60599,3.61554"
       id="path624-6" />
    <path
       inkscape:connector-curvature="0"
       style="fill:none;stroke:#000000;stroke-width:0.52981108;stroke-linecap:butt;stroke-linejoin:miter;stroke-miterlimit:10;stroke-opacity:1"
       d="m 376.62141,124.086 -5.22361,-0.40148"
       id="path626-2" />
    <path
       inkscape:connector-curvature="0"
       style="fill:none;stroke:#000000;stroke-width:0.52981108;stroke-linecap:butt;stroke-linejoin:miter;stroke-miterlimit:10;stroke-opacity:1"
       d="m 368.98883,120.87403 0.40148,-5.22361"
       id="path628-1" />
    <path
       inkscape:connector-curvature="0"
       style="fill:none;stroke:#000000;stroke-width:0.52981108;stroke-linecap:butt;stroke-linejoin:miter;stroke-miterlimit:10;stroke-opacity:1"
       d="m 357.10533,95.639704 4.7683,0 0,2.11925 -4.7683,0 z m 0,0"
       id="path630-1" />
    <path
       inkscape:connector-curvature="0"
       style="fill:none;stroke:#000000;stroke-width:0.52981108;stroke-linecap:butt;stroke-linejoin:miter;stroke-miterlimit:10;stroke-opacity:1"
       d="m 362.40344,95.639704 5.2981,0 0,2.11925 -5.2981,0 z m 0,0"
       id="path632-5" />
    <path
       inkscape:connector-curvature="0"
       style="fill:none;stroke:#000000;stroke-width:0.52981108;stroke-linecap:butt;stroke-linejoin:miter;stroke-miterlimit:10;stroke-opacity:1"
       d="m 368.23136,95.639704 5.82793,0 0,2.11925 -5.82793,0 z m 0,0"
       id="path634-8" />
    <path
       inkscape:connector-curvature="0"
       style="fill:none;stroke:#000000;stroke-width:0.52981108;stroke-linecap:butt;stroke-linejoin:miter;stroke-miterlimit:10;stroke-opacity:1"
       d="m 374.05929,95.639704 5.2981,0 0,2.11925 -5.2981,0 z m 0,0"
       id="path636-4" />
    <path
       inkscape:connector-curvature="0"
       style="fill:none;stroke:#000000;stroke-width:0.52981108;stroke-linecap:butt;stroke-linejoin:miter;stroke-miterlimit:10;stroke-opacity:1"
       d="m 382.00644,95.639704 4.2385,0 0,2.11925 -4.2385,0 z m 0,0"
       id="path638-2" />
    <path
       inkscape:connector-curvature="0"
       style="fill:none;stroke:#000000;stroke-width:0.52981108;stroke-linecap:butt;stroke-linejoin:miter;stroke-miterlimit:10;stroke-opacity:1"
       d="m 391.54304,96.699329 11.12605,0 0,38.146401 -11.12605,0 z m 0,0"
       id="path640-0" />
    <path
       inkscape:connector-curvature="0"
       style="fill:none;stroke:#000000;stroke-width:0.52981108;stroke-linecap:butt;stroke-linejoin:miter;stroke-miterlimit:10;stroke-opacity:1"
       d="m 331.67439,96.699329 11.12604,0 0,38.146401 -11.12604,0 z m 0,0"
       id="path642-8" />
    <path
       inkscape:connector-curvature="0"
       style="fill:none;stroke:#000000;stroke-width:0.52981108;stroke-linecap:butt;stroke-linejoin:miter;stroke-miterlimit:10;stroke-opacity:1"
       d="m 332.2042,98.137679 c 0,-0.1511 0.15524,-0.115875 0.30221,-0.1511 0.33113,-0.07625 0.5795,-0.3767 0.90853,-0.455325 0.14695,-0.03287 0.3042,0 0.3042,0.1511 0,0.455325 0.0434,0.802987 0.149,0.908525 0.2152,0.215212 0.4677,0.05825 0.60641,0 0.19869,-0.0805 0.30421,-0.3022 0.60643,-0.6043 0.1511,-0.1511 0.34766,-0.409763 0.4532,-0.304225 0.10762,0.107625 0.30421,0.304225 0.4532,0.455325 0.15311,0.1511 0.30421,0.304225 0.60641,0.304225 0.1511,0 0.42841,-0.07425 0.75742,-0.153125 0.14698,-0.035 0.34767,-0.194538 0.4532,-0.3022 0.10763,-0.107625 0.0456,0.196562 0.15313,0.3022 0.106,0.107625 0.10387,0.221462 0.3022,0.302212 0.1387,0.05825 0.4532,0 0.6043,0 0.15311,0 0.3021,0 0.45531,0 0.1511,0 0.30221,0 0.4532,0 0,0.1511 -0.1511,0 0,0 0.1511,0.1511 -0.1511,0 0,0 0.30423,0.1511 -0.1511,0 0,0"
       id="path644-4" />
    <path
       inkscape:connector-curvature="0"
       style="fill:none;stroke:#000000;stroke-width:0.52981108;stroke-linecap:butt;stroke-linejoin:miter;stroke-miterlimit:10;stroke-opacity:1"
       d="m 392.45159,98.441904 c 0,-0.1531 0.19656,-0.34765 0.3022,-0.455313 0.10762,-0.107625 0.3146,-0.09325 0.4532,-0.1511 0.19869,-0.08263 0.3146,-0.209062 0.45532,-0.153125 0.19868,0.08275 0.25664,0.333263 0.45533,0.606438 0.12425,0.173875 0.17801,0.349775 0.4532,0.1531 0.17387,-0.1262 0.19655,-0.34765 0.3022,-0.455313 0.10762,-0.107625 0.30421,0 0.4532,0 0.15311,0 0.45531,0 0.60642,0 0.1511,0 0.30422,0 0.4532,0 0.15312,0 0.45533,0 0.60643,0 0.1511,0 0.30421,0 0.4532,0 0.1531,0 0.30421,0 0.45531,0 0.1511,0 0.3022,0 0.45533,0 0.14897,0 0.14897,0.1511 0.3021,0.1511 0.1511,0 0.49876,0.107625 0.6043,0 0.10762,-0.107625 0.15311,-0.1511 0.3021,-0.1511 0.15311,0 -0.14899,0 0,0 0.30421,0 -0.14899,0 0,0"
       id="path646-1" />
    <path
       inkscape:connector-curvature="0"
       style="fill:none;stroke:#000000;stroke-width:0.52981108;stroke-linecap:butt;stroke-linejoin:miter;stroke-miterlimit:10;stroke-opacity:1"
       d="m 332.73401,99.878204 9.00679,0 0,7.417346 -9.00679,0 z m 0,0"
       id="path648-5" />
    <path
       inkscape:connector-curvature="0"
       style="fill:none;stroke:#000000;stroke-width:0.52981108;stroke-linecap:butt;stroke-linejoin:miter;stroke-miterlimit:10;stroke-opacity:1"
       d="m 332.73401,117.89177 9.00679,0 0,2.11925 -9.00679,0 z m 0,0"
       id="path650-2" />
    <path
       inkscape:connector-curvature="0"
       style="fill:none;stroke:#000000;stroke-width:0.52981108;stroke-linecap:butt;stroke-linejoin:miter;stroke-miterlimit:10;stroke-opacity:1"
       d="m 332.73401,121.60045 9.00679,0 0,2.11925 -9.00679,0 z m 0,0"
       id="path652-1" />
    <path
       inkscape:connector-curvature="0"
       style="fill:none;stroke:#000000;stroke-width:0.52981108;stroke-linecap:butt;stroke-linejoin:miter;stroke-miterlimit:10;stroke-opacity:1"
       d="m 333.26383,109.18715 c 0,-0.149 0.106,-0.21935 0.30221,-0.30221 0.14071,-0.0583 0.4657,-0.0583 0.60641,0 0.19869,0.0828 0.10388,0.37256 0.3022,0.4532 0.14073,0.0604 0.30423,0 0.4532,-0.1511 0,-0.14899 -0.14897,0.1511 0,0"
       id="path654-2" />
    <path
       inkscape:connector-curvature="0"
       style="fill:none;stroke:#000000;stroke-width:0.52981108;stroke-linecap:butt;stroke-linejoin:miter;stroke-miterlimit:10;stroke-opacity:1"
       d="m 332.80853,111.45745 c 0.15311,-0.1511 0.30421,-0.1511 0.45531,-0.30007 0.1511,-0.15313 0.3146,-0.21108 0.45532,-0.15313 0.19657,0.0828 0.30209,0.15313 0.30209,0.30222 0,0.1511 0.01,0.36218 0.15111,0.30421 0.19868,-0.0826 0.19657,-0.19656 0.3022,-0.30421 0.10763,-0.106 0.34767,-0.106 0.4532,0 0.10763,0.10762 0.0456,0.19656 0.15313,0.30421 0.106,0.106 0.4532,0 0.6043,0 0.1531,0 -0.1511,0 0,0 0.3021,-0.15311 -0.1511,0 0,0"
       id="path656-9" />
    <path
       inkscape:connector-curvature="0"
       style="fill:none;stroke:#000000;stroke-width:0.52981108;stroke-linecap:butt;stroke-linejoin:miter;stroke-miterlimit:10;stroke-opacity:1"
       d="m 332.50636,113.12347 c 0.15313,-0.1511 0.48224,-0.10388 0.75743,-0.3022 0.17387,-0.1262 0.3022,-0.1511 0.3022,0 0,0.1511 0.15311,0.1511 0.3021,0.1511 0.15311,0 0.3767,-0.0222 0.45531,-0.1511 0.17803,-0.28769 0.30221,0 0.45533,0 0.14898,0 -0.15312,0 0,0 0.3021,0 -0.15312,0 0,0 0.4532,0 -0.15312,0 0,0"
       id="path658-2" />
    <path
       inkscape:connector-curvature="0"
       style="fill:none;stroke:#000000;stroke-width:0.52981108;stroke-linecap:butt;stroke-linejoin:miter;stroke-miterlimit:10;stroke-opacity:1"
       d="m 332.80853,115.24272 c 0.15311,0 0.45531,-0.1511 0.60641,-0.1511 0.30422,0 0.4532,0.1511 0.60642,0.30421 0.1511,0.14899 0.3022,0.14899 0.4532,0.14899 0.1511,0 0.30634,0.035 0.4532,0 0.33113,-0.0763 0.34767,-0.25664 0.45533,-0.14899 0.10762,0.106 0.3022,0 0.45531,0 0.14899,0 -0.15311,0 0,0"
       id="path660-0" />
    <path
       inkscape:connector-curvature="0"
       style="fill:none;stroke:#000000;stroke-width:0.52981108;stroke-linecap:butt;stroke-linejoin:miter;stroke-miterlimit:10;stroke-opacity:1"
       d="m 338.41085,109.18715 c 0.15111,-0.149 0.25664,-0.21935 0.4532,-0.30221 0.14073,-0.0583 0.25664,-0.0826 0.45533,0 0.13871,0.0583 0.15111,0.15311 0.30221,0.15311 0.1511,0 0.3022,0.14899 0.45531,0.14899 0.14899,0 0.14899,-0.14899 0.3021,-0.14899 0,-0.15311 -0.15311,0 0,0 0.1511,-0.15311 -0.15311,0 0,0 0.3022,-0.15311 -0.15311,0 0,0"
       id="path662-7" />
    <path
       inkscape:connector-curvature="0"
       style="fill:none;stroke:#000000;stroke-width:0.52981108;stroke-linecap:butt;stroke-linejoin:miter;stroke-miterlimit:10;stroke-opacity:1"
       d="m 338.25978,110.70207 c 0.1511,0 0.46571,-0.0933 0.6043,-0.1511 0.19867,-0.0828 0.19656,-0.10763 0.3021,0 0.10762,0.106 0.15311,0.1511 0.45531,0.1511 0.1511,0 -0.3022,0 0,0 0.30221,0 -0.3022,0 0,0"
       id="path664-7" />
    <path
       inkscape:connector-curvature="0"
       style="fill:none;stroke:#000000;stroke-width:0.52981108;stroke-linecap:butt;stroke-linejoin:miter;stroke-miterlimit:10;stroke-opacity:1"
       d="m 338.25978,112.51709 c 0.1511,0 0.46771,-0.47811 0.75741,-0.30009 0.12832,0.0784 0.0434,0.19455 0.14899,0.30009 0.10762,0.10763 0.15311,0.30421 0.30421,0.30421 0.1511,0 0.19656,-0.0456 0.3022,-0.1511 0.10762,-0.10762 0.30422,0 0.60644,0.1511 0.1511,0 -0.3021,-0.1511 0,0"
       id="path666-3" />
    <path
       inkscape:connector-curvature="0"
       style="fill:none;stroke:#000000;stroke-width:0.52981108;stroke-linecap:butt;stroke-linejoin:miter;stroke-miterlimit:10;stroke-opacity:1"
       d="m 338.41085,115.39587 c 0.15111,0 0.25664,-0.22147 0.4532,-0.30422 0.28144,-0.11587 0.60644,-0.3022 0.75743,-0.1511 0.1511,0.1511 0.0456,0.34765 0.1511,0.45532 0.10762,0.106 0.15111,0.14898 0.30421,0.14898 0.14899,0 0.19455,-0.0434 0.3021,-0.14898 0.106,-0.10763 0.3146,-0.0604 0.4532,0 0.19869,0.0805 0.3146,0.20693 0.4532,0.14898 0.19869,-0.0805 0.30422,-0.14898 0.45532,-0.14898 0.1511,0.14898 -0.1511,0 0,0 0.3022,0.14898 -0.1511,0 0,0"
       id="path668-9" />
    <path
       inkscape:connector-curvature="0"
       style="fill:none;stroke:#000000;stroke-width:0.52981108;stroke-linecap:butt;stroke-linejoin:miter;stroke-miterlimit:10;stroke-opacity:1"
       d="m 392.60268,99.878204 9.00677,0 0,6.357726 -9.00677,0 z m 0,0"
       id="path670-6" />
    <path
       inkscape:connector-curvature="0"
       style="fill:none;stroke:#000000;stroke-width:0.52981108;stroke-linecap:butt;stroke-linejoin:miter;stroke-miterlimit:10;stroke-opacity:1"
       d="m 392.60268,107.82535 9.00677,0 0,6.35775 -9.00677,0 z m 0,0"
       id="path672-5" />
    <path
       inkscape:connector-curvature="0"
       style="fill:none;stroke:#000000;stroke-width:0.52981108;stroke-linecap:butt;stroke-linejoin:miter;stroke-miterlimit:10;stroke-opacity:1"
       d="m 392.60268,115.77253 9.00677,0 0,6.35772 -9.00677,0 z m 0,0"
       id="path674-6" />
    <path
       inkscape:connector-curvature="0"
       style="fill:none;stroke:#000000;stroke-width:0.52981108;stroke-linecap:butt;stroke-linejoin:miter;stroke-miterlimit:10;stroke-opacity:1"
       d="m 392.60268,123.7197 9.00677,0 0,6.35773 -9.00677,0 z m 0,0"
       id="path676-7" />
    <path
       inkscape:connector-curvature="0"
       style="fill:none;stroke:#000000;stroke-width:0.52981108;stroke-linecap:butt;stroke-linejoin:miter;stroke-miterlimit:10;stroke-opacity:1"
       d="m 393.66229,111.53404 3.70869,0 0,1.58943 -3.70869,0 z m 0,0"
       id="path678-8" />
    <path
       inkscape:connector-curvature="0"
       style="fill:none;stroke:#000000;stroke-width:0.52981108;stroke-linecap:butt;stroke-linejoin:miter;stroke-miterlimit:10;stroke-opacity:1"
       d="m 397.37098,111.53404 3.17886,0 0,1.58943 -3.17886,0 z m 0,0"
       id="path680-5" />
    <path
       inkscape:connector-curvature="0"
       style="fill:#cccccc;fill-opacity:1;fill-rule:evenodd;stroke:none"
       d="m 429.22971,88.083679 34.4305,0 0,65.299221 -34.4305,0 z m 0,0"
       id="path302-6" />
    <path
       inkscape:connector-curvature="0"
       style="fill:#cccccc;fill-opacity:1;fill-rule:evenodd;stroke:none"
       d="m 429.22971,88.677304 0,-0.593625 c -0.32696,0 -0.59363,0.266662 -0.59363,0.593625 z m 0,0"
       id="path304-4" />
    <path
       inkscape:connector-curvature="0"
       style="fill:#cccccc;fill-opacity:1;fill-rule:evenodd;stroke:none"
       d="m 463.66021,88.677304 0.59364,0 c 0,-0.326963 -0.26669,-0.593625 -0.59364,-0.593625 z m 0,0"
       id="path306-8" />
    <path
       inkscape:connector-curvature="0"
       style="fill:#cccccc;fill-opacity:1;fill-rule:evenodd;stroke:none"
       d="m 428.63608,88.677304 35.61777,0 0,64.111976 -35.61777,0 z m 0,0"
       id="path308-4" />
    <path
       inkscape:connector-curvature="0"
       style="fill:#cccccc;fill-opacity:1;fill-rule:evenodd;stroke:none"
       d="m 429.22971,152.78928 -0.59363,0 c 0,0.32696 0.26667,0.59362 0.59363,0.59362 z m 0,0"
       id="path310-0" />
    <path
       inkscape:connector-curvature="0"
       style="fill:#cccccc;fill-opacity:1;fill-rule:evenodd;stroke:none"
       d="m 463.66021,152.78928 0,0.59362 c 0.32695,0 0.59364,-0.26666 0.59364,-0.59362 z m 0,0"
       id="path312-1" />
    <path
       inkscape:connector-curvature="0"
       style="fill:none;stroke:#000000;stroke-width:0.59362936;stroke-linecap:butt;stroke-linejoin:miter;stroke-miterlimit:10;stroke-opacity:1"
       d="m 429.22971,88.083679 34.4305,0"
       id="path314-5" />
    <path
       inkscape:connector-curvature="0"
       style="fill:none;stroke:#000000;stroke-width:0.59362936;stroke-linecap:butt;stroke-linejoin:miter;stroke-miterlimit:10;stroke-opacity:1"
       d="m 429.22971,153.3829 34.4305,0"
       id="path316-9" />
    <path
       inkscape:connector-curvature="0"
       style="fill:none;stroke:#000000;stroke-width:0.59362936;stroke-linecap:butt;stroke-linejoin:miter;stroke-miterlimit:10;stroke-opacity:1"
       d="m 429.22971,88.083679 0,0 c -0.32696,0 -0.59363,0.266662 -0.59363,0.593625"
       id="path318-0" />
    <path
       inkscape:connector-curvature="0"
       style="fill:none;stroke:#000000;stroke-width:0.59362936;stroke-linecap:butt;stroke-linejoin:miter;stroke-miterlimit:10;stroke-opacity:1"
       d="m 464.25385,88.677304 0,0 c 0,-0.326963 -0.26669,-0.593625 -0.59364,-0.593625"
       id="path320-9" />
    <path
       inkscape:connector-curvature="0"
       style="fill:none;stroke:#000000;stroke-width:0.59362936;stroke-linecap:butt;stroke-linejoin:miter;stroke-miterlimit:10;stroke-opacity:1"
       d="m 428.63608,88.677304 0,64.111976"
       id="path322-0" />
    <path
       inkscape:connector-curvature="0"
       style="fill:none;stroke:#000000;stroke-width:0.59362936;stroke-linecap:butt;stroke-linejoin:miter;stroke-miterlimit:10;stroke-opacity:1"
       d="m 464.25385,88.677304 0,64.111976"
       id="path324-5" />
    <path
       inkscape:connector-curvature="0"
       style="fill:none;stroke:#000000;stroke-width:0.59362936;stroke-linecap:butt;stroke-linejoin:miter;stroke-miterlimit:10;stroke-opacity:1"
       d="m 428.63608,152.78928 0,0 c 0,0.32697 0.26666,0.59362 0.59363,0.59362"
       id="path326-8" />
    <path
       inkscape:connector-curvature="0"
       style="fill:none;stroke:#000000;stroke-width:0.59362936;stroke-linecap:butt;stroke-linejoin:miter;stroke-miterlimit:10;stroke-opacity:1"
       d="m 463.66021,153.3829 0,0 c 0.32698,0 0.59364,-0.26665 0.59364,-0.59362"
       id="path328-6" />
    <path
       inkscape:connector-curvature="0"
       style="fill:#ffffff;fill-opacity:1;fill-rule:evenodd;stroke:none"
       d="m 429.22971,88.083679 34.4305,0 0,17.808871 -34.4305,0 z m 0,0"
       id="path330-8" />
    <path
       inkscape:connector-curvature="0"
       style="fill:#ffffff;fill-opacity:1;fill-rule:evenodd;stroke:none"
       d="m 429.22971,88.677304 0,-0.593625 c -0.32696,0 -0.59363,0.266662 -0.59363,0.593625 z m 0,0"
       id="path332-1" />
    <path
       inkscape:connector-curvature="0"
       style="fill:#ffffff;fill-opacity:1;fill-rule:evenodd;stroke:none"
       d="m 463.66021,88.677304 0.59364,0 c 0,-0.326963 -0.26669,-0.593625 -0.59364,-0.593625 z m 0,0"
       id="path334-2" />
    <path
       inkscape:connector-curvature="0"
       style="fill:#ffffff;fill-opacity:1;fill-rule:evenodd;stroke:none"
       d="m 428.63608,88.677304 35.61777,0 0,16.621626 -35.61777,0 z m 0,0"
       id="path336-7" />
    <path
       inkscape:connector-curvature="0"
       style="fill:#ffffff;fill-opacity:1;fill-rule:evenodd;stroke:none"
       d="m 429.22971,105.29893 -0.59363,0 c 0,0.32696 0.26667,0.59362 0.59363,0.59362 z m 0,0"
       id="path338-2" />
    <path
       inkscape:connector-curvature="0"
       style="fill:#ffffff;fill-opacity:1;fill-rule:evenodd;stroke:none"
       d="m 463.66021,105.29893 0,0.59362 c 0.32695,0 0.59364,-0.26666 0.59364,-0.59362 z m 0,0"
       id="path340-5" />
    <path
       inkscape:connector-curvature="0"
       style="fill:none;stroke:#000000;stroke-width:0.59362936;stroke-linecap:butt;stroke-linejoin:miter;stroke-miterlimit:10;stroke-opacity:1"
       d="m 429.22971,88.083679 34.4305,0"
       id="path342-4" />
    <path
       inkscape:connector-curvature="0"
       style="fill:none;stroke:#000000;stroke-width:0.59362936;stroke-linecap:butt;stroke-linejoin:miter;stroke-miterlimit:10;stroke-opacity:1"
       d="m 429.22971,105.89255 34.4305,0"
       id="path344-5" />
    <path
       inkscape:connector-curvature="0"
       style="fill:none;stroke:#000000;stroke-width:0.59362936;stroke-linecap:butt;stroke-linejoin:miter;stroke-miterlimit:10;stroke-opacity:1"
       d="m 429.22971,88.083679 0,0 c -0.32696,0 -0.59363,0.266662 -0.59363,0.593625"
       id="path346-9" />
    <path
       inkscape:connector-curvature="0"
       style="fill:none;stroke:#000000;stroke-width:0.59362936;stroke-linecap:butt;stroke-linejoin:miter;stroke-miterlimit:10;stroke-opacity:1"
       d="m 464.25385,88.677304 0,0 c 0,-0.326963 -0.26669,-0.593625 -0.59364,-0.593625"
       id="path348-5" />
    <path
       inkscape:connector-curvature="0"
       style="fill:none;stroke:#000000;stroke-width:0.59362936;stroke-linecap:butt;stroke-linejoin:miter;stroke-miterlimit:10;stroke-opacity:1"
       d="m 428.63608,88.677304 0,16.621626"
       id="path350-9" />
    <path
       inkscape:connector-curvature="0"
       style="fill:none;stroke:#000000;stroke-width:0.59362936;stroke-linecap:butt;stroke-linejoin:miter;stroke-miterlimit:10;stroke-opacity:1"
       d="m 464.25385,88.677304 0,16.621626"
       id="path352-7" />
    <path
       inkscape:connector-curvature="0"
       style="fill:none;stroke:#000000;stroke-width:0.59362936;stroke-linecap:butt;stroke-linejoin:miter;stroke-miterlimit:10;stroke-opacity:1"
       d="m 428.63608,105.29893 0,0 c 0,0.32697 0.26666,0.59362 0.59363,0.59362"
       id="path354-4" />
    <path
       inkscape:connector-curvature="0"
       style="fill:none;stroke:#000000;stroke-width:0.59362936;stroke-linecap:butt;stroke-linejoin:miter;stroke-miterlimit:10;stroke-opacity:1"
       d="m 463.66021,105.89255 0,0 c 0.32698,0 0.59364,-0.26665 0.59364,-0.59362"
       id="path356-4" />
    <path
       inkscape:connector-curvature="0"
       style="fill:#cccccc;fill-opacity:1;fill-rule:evenodd;stroke:#000000;stroke-width:0.59362936;stroke-linecap:butt;stroke-linejoin:miter;stroke-miterlimit:10;stroke-opacity:1"
       d="m 461.87933,89.270941 1.18726,0 0,3.561763 -1.18726,0 z m 0,0"
       id="path358-9" />
    <path
       inkscape:connector-curvature="0"
       style="fill:#cccccc;fill-opacity:1;fill-rule:evenodd;stroke:#000000;stroke-width:0.59362936;stroke-linecap:butt;stroke-linejoin:miter;stroke-miterlimit:10;stroke-opacity:1"
       d="m 461.87933,95.207229 1.18726,0 0,3.561775 -1.18726,0 z m 0,0"
       id="path360-8" />
    <path
       inkscape:connector-curvature="0"
       style="fill:#cccccc;fill-opacity:1;fill-rule:evenodd;stroke:#000000;stroke-width:0.59362936;stroke-linecap:butt;stroke-linejoin:miter;stroke-miterlimit:10;stroke-opacity:1"
       d="m 461.87933,101.14352 1.18726,0 0,3.56178 -1.18726,0 z m 0,0"
       id="path362-3" />
    <path
       inkscape:connector-curvature="0"
       style="fill:none;stroke:#000000;stroke-width:0.59362936;stroke-linecap:butt;stroke-linejoin:miter;stroke-miterlimit:10;stroke-opacity:1"
       d="m 429.82334,110.64159 0,0"
       id="path364-5" />
    <path
       inkscape:connector-curvature="0"
       style="fill:#cccccc;fill-opacity:1;fill-rule:evenodd;stroke:#000000;stroke-width:0.74698198;stroke-linecap:butt;stroke-linejoin:round;stroke-miterlimit:10;stroke-opacity:1"
       d="m 485.36616,94.057104 71.71027,0 c 0.82576,0 1.49397,0.66825 1.49397,1.493962 l 0,49.300804 c 0,0.82575 -0.66821,1.49396 -1.49397,1.49396 l -71.71027,0 c -0.82575,0 -1.49396,-0.66821 -1.49396,-1.49396 l 0,-49.300804 c 0,-0.825712 0.66821,-1.493962 1.49396,-1.493962"
       id="path1092-7" />
    <path
       inkscape:connector-curvature="0"
       style="fill:#ffffff;fill-opacity:1;fill-rule:evenodd;stroke:#000000;stroke-width:0.74698198;stroke-linecap:butt;stroke-linejoin:round;stroke-miterlimit:10;stroke-opacity:1"
       d="m 485.36616,101.52692 71.71027,0 c 0.82576,0 1.49397,0.66825 1.49397,1.49396 l 0,41.83099 c 0,0.82575 -0.66821,1.49396 -1.49397,1.49396 l -71.71027,0 c -0.82575,0 -1.49396,-0.66821 -1.49396,-1.49396 l 0,-41.83099 c 0,-0.82576 0.66821,-1.49396 1.49396,-1.49396"
       id="path1094-5" />
    <path
       inkscape:connector-curvature="0"
       style="fill:#ffffff;fill-opacity:1;fill-rule:evenodd;stroke:#000000;stroke-width:0.74698198;stroke-linecap:butt;stroke-linejoin:round;stroke-miterlimit:10;stroke-opacity:1"
       d="m 554.83549,96.298041 0,0 c 0.82576,0 1.49396,0.66825 1.49396,1.493975 0,0.8257 -0.6682,1.49395 -1.49396,1.49395 -0.82576,0 -1.49396,-0.66825 -1.49396,-1.49395 0,-0.825725 0.6682,-1.493975 1.49396,-1.493975"
       id="path1096-3" />
    <path
       inkscape:connector-curvature="0"
       style="fill:#cccccc;fill-opacity:1;fill-rule:evenodd;stroke:#000000;stroke-width:0.77380955;stroke-linecap:butt;stroke-linejoin:miter;stroke-miterlimit:10;stroke-opacity:1"
       d="m 614.83356,104.2197 c 0,4.27409 -8.66,7.7381 -19.34523,7.7381 -10.68522,0 -19.34524,-3.46401 -19.34524,-7.7381 0,-4.274084 8.66002,-7.738084 19.34524,-7.738084 10.68523,0 19.34523,3.464 19.34523,7.738084"
       id="path1062-2" />
    <path
       inkscape:connector-curvature="0"
       style="fill:none;stroke:#000000;stroke-width:0.77380955;stroke-linecap:butt;stroke-linejoin:miter;stroke-miterlimit:10;stroke-opacity:1"
       d="m 614.83356,104.2197 0,30.95239"
       id="path1064-8" />
    <path
       inkscape:connector-curvature="0"
       style="fill:none;stroke:#000000;stroke-width:0.77380955;stroke-linecap:butt;stroke-linejoin:miter;stroke-miterlimit:10;stroke-opacity:1"
       d="m 576.14309,135.17209 c 0,10.83334 38.69047,10.83334 38.69047,0"
       id="path1066-7" />
    <path
       inkscape:connector-curvature="0"
       style="fill:none;stroke:#000000;stroke-width:0.77380955;stroke-linecap:butt;stroke-linejoin:miter;stroke-miterlimit:10;stroke-opacity:1"
       d="m 576.14309,104.2197 0,30.95239"
       id="path1068-1" />
    <text
       xml:space="preserve"
       style="font-size:40px;font-style:normal;font-weight:normal;line-height:125%;letter-spacing:0px;word-spacing:0px;fill:#000000;fill-opacity:1;stroke:none;font-family:Sans"
       x="351.97989"
       y="164.61839"
       id="text8917"
       sodipodi:linespacing="125%"><tspan
         sodipodi:role="line"
         id="tspan8919"
         x="351.97989"
         y="164.61839"
         style="font-size:11px;font-weight:normal;-inkscape-font-specification:Sans">client</tspan></text>
    <text
       xml:space="preserve"
       style="font-size:40px;font-style:normal;font-weight:normal;line-height:125%;letter-spacing:0px;word-spacing:0px;fill:#000000;fill-opacity:1;stroke:none;font-family:Sans"
       x="428.62912"
       y="163.65553"
       id="text8917-8"
       sodipodi:linespacing="125%"><tspan
         sodipodi:role="line"
         id="tspan8919-1"
         x="428.62912"
         y="163.65553"
         style="font-size:11px;font-weight:normal;-inkscape-font-specification:Sans">server</tspan></text>
    <text
       xml:space="preserve"
       style="font-size:40px;font-style:normal;font-weight:normal;line-height:125%;letter-spacing:0px;word-spacing:0px;fill:#000000;fill-opacity:1;stroke:none;font-family:Sans"
       x="496.65442"
       y="162.2798"
       id="text8917-9"
       sodipodi:linespacing="125%"><tspan
         sodipodi:role="line"
         id="tspan8919-6"
         x="496.65442"
         y="162.2798"
         style="font-size:11px;font-weight:normal;-inkscape-font-specification:Sans">program</tspan></text>
    <text
       xml:space="preserve"
       style="font-size:40px;font-style:normal;font-weight:normal;line-height:125%;letter-spacing:0px;word-spacing:0px;fill:#000000;fill-opacity:1;stroke:none;font-family:Sans"
       x="575.1413"
       y="161.96764"
       id="text8917-91"
       sodipodi:linespacing="125%"><tspan
         sodipodi:role="line"
         id="tspan8919-4"
         x="575.1413"
         y="161.96764"
         style="font-size:11px;font-weight:normal;-inkscape-font-specification:Sans">storage</tspan></text>
    <rect
       id="rect8960"
       width="322.38644"
       height="104.899"
       x="310.23535"
       y="65.626968"
       style="fill:none;stroke:#000000;stroke-width:0.53889865;stroke-miterlimit:4;stroke-opacity:1;stroke-dasharray:none" />
    <text
       xml:space="preserve"
       style="font-size:40px;font-style:italic;font-weight:normal;line-height:125%;letter-spacing:0px;word-spacing:0px;fill:#000000;fill-opacity:1;stroke:none;font-family:Sans;-inkscape-font-specification:Sans Italic"
       x="314.3627"
       y="78.417229"
       id="text8917-5"
       sodipodi:linespacing="125%"><tspan
         sodipodi:role="line"
         id="tspan8919-7"
         x="314.3627"
         y="78.417229"
         style="font-size:11px;font-style:italic;font-weight:normal;-inkscape-font-specification:Sans Italic">Legend</tspan></text>
  </g>
</svg>
