<?xml version="1.0" encoding="UTF-8" standalone="no"?>
<!-- Generated by graphviz version 2.26.0 (20091210.2329)
 -->

<!-- Title: G Pages: 1 -->

<svg
   xmlns:dc="http://purl.org/dc/elements/1.1/"
   xmlns:cc="http://creativecommons.org/ns#"
   xmlns:rdf="http://www.w3.org/1999/02/22-rdf-syntax-ns#"
   xmlns:svg="http://www.w3.org/2000/svg"
   xmlns="http://www.w3.org/2000/svg"
   xmlns:sodipodi="http://sodipodi.sourceforge.net/DTD/sodipodi-0.dtd"
   xmlns:inkscape="http://www.inkscape.org/namespaces/inkscape"
   width="319.99896"
   height="319.9957"
   viewBox="0 0 256.22331 255.67411"
   id="svg2"
   version="1.1"
   inkscape:version="0.48.2 r9819"
   sodipodi:docname="match_good.svg">
  <metadata
     id="metadata204">
    <rdf:RDF>
      <cc:Work
         rdf:about="">
        <dc:format>image/svg+xml</dc:format>
        <dc:type
           rdf:resource="http://purl.org/dc/dcmitype/StillImage" />
        <dc:title />
      </cc:Work>
    </rdf:RDF>
  </metadata>
  <defs
     id="defs202" />
  <sodipodi:namedview
     pagecolor="#ffffff"
     bordercolor="#666666"
     borderopacity="1"
     objecttolerance="10"
     gridtolerance="10"
     guidetolerance="10"
     inkscape:pageopacity="0"
     inkscape:pageshadow="2"
     inkscape:window-width="1366"
     inkscape:window-height="688"
     id="namedview200"
     showgrid="false"
     fit-margin-top="-58.82"
     fit-margin-left="-20.57"
     fit-margin-right="0"
     fit-margin-bottom="0"
     inkscape:zoom="0.97069409"
     inkscape:cx="-36.800603"
     inkscape:cy="224.17377"
     inkscape:window-x="0"
     inkscape:window-y="25"
     inkscape:window-maximized="1"
     inkscape:current-layer="svg2" />
  <ellipse
     cx="203.51199"
     cy="-255.299"
     rx="36.7696"
     ry="32.526901"
     id="ellipse35"
     d="m 240.28159,-255.299 c 0,17.96412 -16.46231,32.52691 -36.7696,32.52691 -20.30729,0 -36.7696,-14.56279 -36.7696,-32.52691 0,-17.96411 16.46231,-32.5269 36.7696,-32.5269 20.30729,0 36.7696,14.56279 36.7696,32.5269 z"
     sodipodi:cx="203.51199"
     sodipodi:cy="-255.299"
     sodipodi:rx="36.7696"
     sodipodi:ry="32.526901"
     style="fill:#9f9f9f;fill-opacity:1;stroke:none"
     transform="translate(-168.87041,256.92051)" />
  <text
     x="34.641548"
     y="-4.7785416"
     font-size="14.00"
     id="text37"
     style="font-size:14px;text-anchor:middle;font-family:'Times Roman,serif'">C</text>
  <text
     x="34.641548"
     y="14.221477"
     font-size="14.00"
     id="text39"
     style="font-size:14px;text-anchor:middle;font-family:'Times Roman,serif'">0.117</text>
  <g
     class="edge"
     id="edge26"
     transform="translate(-168.87041,256.92051)">
    <title
       id="title42">1--6</title>
    <path
       style="fill:none;stroke:#000000"
       inkscape:connector-curvature="0"
       id="path44"
       d="m 207.713,-303.791 c -0.458,5.278 -0.931,10.746 -1.389,16.025" />
  </g>
  <g
     class="edge"
     id="edge24"
     transform="translate(-168.87041,256.92051)">
    <title
       id="title56">2--6</title>
    <path
       style="fill:none;stroke:#000000"
       inkscape:connector-curvature="0"
       id="path58"
       d="m 240.499,-288.584 c -3.658,3.292 -7.419,6.676 -11.076,9.967" />
  </g>
  <g
     class="edge"
     id="edge16"
     transform="translate(-168.87041,256.92051)">
    <title
       id="title112">6--7</title>
    <path
       style="fill:none;stroke:#000000"
       inkscape:connector-curvature="0"
       id="path114"
       d="m 166.713,-259.709 c -4.57,-0.548 -9.243,-1.108 -13.813,-1.656" />
  </g>
  <ellipse
     cx="254.355"
     cy="-183.49899"
     rx="36.7696"
     ry="32.526901"
     id="ellipse119"
     d="m 291.1246,-183.49899 c 0,17.96411 -16.46231,32.5269 -36.7696,32.5269 -20.30729,0 -36.7696,-14.56279 -36.7696,-32.5269 0,-17.96411 16.46231,-32.5269 36.7696,-32.5269 20.30729,0 36.7696,14.56279 36.7696,32.5269 z"
     sodipodi:cx="254.355"
     sodipodi:cy="-183.49899"
     sodipodi:rx="36.7696"
     sodipodi:ry="32.526901"
     style="fill:#599855;fill-opacity:1;stroke:none"
     transform="translate(-168.87041,256.92051)" />
  <text
     x="85.48455"
     y="67.021606"
     font-size="14.00"
     id="text121"
     style="font-size:14px;text-anchor:middle;font-family:'Times Roman,serif'">C</text>
  <text
     x="85.48455"
     y="86.021622"
     font-size="14.00"
     id="text123"
     style="font-size:14px;text-anchor:middle;font-family:'Times Roman,serif'">0.326</text>
  <g
     class="edge"
     id="edge14"
     transform="translate(-168.87041,256.92051)">
    <title
       id="title126">6--9</title>
    <path
       style="fill:none;stroke:#000000"
       inkscape:connector-curvature="0"
       id="path128"
       d="m 223.315,-227.334 c 3.68,5.198 7.526,10.629 11.208,15.828" />
  </g>
  <ellipse
     cx="304.43201"
     cy="-114.507"
     rx="36.977001"
     ry="32.526901"
     id="ellipse133"
     d="m 341.40901,-114.507 c 0,17.964108 -16.55517,32.526897 -36.977,32.526897 -20.42184,0 -36.977,-14.562789 -36.977,-32.526897 0,-17.96412 16.55516,-32.52691 36.977,-32.52691 20.42183,0 36.977,14.56279 36.977,32.52691 z"
     sodipodi:cx="304.43201"
     sodipodi:cy="-114.507"
     sodipodi:rx="36.977001"
     sodipodi:ry="32.526901"
     style="fill:#4dff40;fill-opacity:1;stroke:none"
     transform="translate(-168.87041,256.92051)" />
  <text
     x="135.56158"
     y="136.01358"
     font-size="14.00"
     id="text135"
     style="font-size:14px;text-anchor:middle;font-family:'Times Roman,serif'">N</text>
  <text
     x="135.56158"
     y="155.01361"
     font-size="14.00"
     id="text137"
     style="font-size:14px;text-anchor:middle;font-family:'Times Roman,serif'">-1.062</text>
  <g
     class="edge"
     id="edge12"
     transform="translate(-168.87041,256.92051)">
    <title
       id="title140">8--9</title>
    <path
       style="fill:none;stroke:#000000"
       inkscape:connector-curvature="0"
       id="path142"
       d="m 284.352,-142.171 c -3.265,-4.499 -6.647,-9.159 -9.913,-13.658" />
  </g>
  <ellipse
     cx="383.87701"
     cy="-99.1371"
     rx="41.216702"
     ry="32.526901"
     id="ellipse147"
     d="m 425.09372,-99.1371 c 0,17.964111 -18.45335,32.526901 -41.21671,32.526901 -22.76335,0 -41.2167,-14.56279 -41.2167,-32.526901 0,-17.96411 18.45335,-32.5269 41.2167,-32.5269 22.76336,0 41.21671,14.56279 41.21671,32.5269 z"
     sodipodi:cx="383.87701"
     sodipodi:cy="-99.1371"
     sodipodi:rx="41.216702"
     sodipodi:ry="32.526901"
     style="fill:#599855;fill-opacity:1;stroke:none"
     transform="translate(-168.87041,256.92051)" />
  <text
     x="215.00659"
     y="151.38361"
     font-size="14.00"
     id="text149"
     style="font-size:14px;text-anchor:middle;font-family:'Times Roman,serif'">H</text>
  <text
     x="215.00659"
     y="170.38351"
     font-size="14.00"
     id="text151"
     style="font-size:14px;text-anchor:middle;font-family:'Times Roman,serif'">0.386</text>
  <g
     class="edge"
     id="edge10"
     transform="translate(-168.87041,256.92051)">
    <title
       id="title154">8--10</title>
    <path
       style="fill:none;stroke:#000000"
       inkscape:connector-curvature="0"
       id="path156"
       d="m 340.899,-107.452 c 0.979,0.189 1.961,0.379 2.943,0.569" />
  </g>
  <ellipse
     cx="295.33499"
     cy="-33.5"
     rx="41.216702"
     ry="32.526901"
     id="ellipse161"
     d="m 336.55169,-33.5 c 0,17.964112 -18.45334,32.52690125 -41.2167,32.52690125 -22.76335,0 -41.2167,-14.56278925 -41.2167,-32.52690125 0,-17.964112 18.45335,-32.526901 41.2167,-32.526901 22.76336,0 41.2167,14.562789 41.2167,32.526901 z"
     sodipodi:cx="295.33499"
     sodipodi:cy="-33.5"
     sodipodi:rx="41.216702"
     sodipodi:ry="32.526901"
     style="fill:#599855;fill-opacity:1;stroke:none"
     transform="translate(-168.87041,256.92051)" />
  <text
     x="126.46456"
     y="217.02063"
     font-size="14.00"
     id="text163"
     style="font-size:14px;text-anchor:middle;font-family:'Times Roman,serif'">H</text>
  <text
     x="126.46456"
     y="236.02061"
     font-size="14.00"
     id="text165"
     style="font-size:14px;text-anchor:middle;font-family:'Times Roman,serif'">0.386</text>
  <g
     class="edge"
     id="edge8"
     transform="translate(-168.87041,256.92051)">
    <title
       id="title168">8--11</title>
    <path
       style="fill:none;stroke:#000000"
       inkscape:connector-curvature="0"
       id="path170"
       d="m 300.784,-82.0253 c -0.593,5.2821 -1.208,10.7538 -1.801,16.036" />
  </g>
  <ellipse
     cx="202.547"
     cy="-121.413"
     rx="41.216702"
     ry="32.526901"
     id="ellipse175"
     d="m 243.7637,-121.413 c 0,17.96411 -18.45335,32.526899 -41.2167,32.526899 -22.76336,0 -41.2167,-14.562789 -41.2167,-32.526899 0,-17.96411 18.45334,-32.5269 41.2167,-32.5269 22.76335,0 41.2167,14.56279 41.2167,32.5269 z"
     sodipodi:cx="202.547"
     sodipodi:cy="-121.413"
     sodipodi:rx="41.216702"
     sodipodi:ry="32.526901"
     style="fill:#9f9f9f;fill-opacity:1;stroke:none"
     transform="translate(-168.87041,256.92051)" />
  <text
     x="33.676552"
     y="129.1076"
     font-size="14.00"
     id="text177"
     style="font-size:14px;text-anchor:middle;font-family:'Times Roman,serif'">H</text>
  <text
     x="33.676552"
     y="148.1076"
     font-size="14.00"
     id="text179"
     style="font-size:14px;text-anchor:middle;font-family:'Times Roman,serif'">-0.018</text>
  <g
     class="edge"
     id="edge6"
     transform="translate(-168.87041,256.92051)">
    <title
       id="title182">9--12</title>
    <path
       style="fill:none;stroke:#000000"
       inkscape:connector-curvature="0"
       id="path184"
       d="m 232.384,-157.169 c -2.317,2.777 -4.676,5.604 -7.002,8.392" />
  </g>
  <ellipse
     cx="329.897"
     cy="-217.689"
     rx="41.216702"
     ry="32.526901"
     id="ellipse189"
     d="m 371.1137,-217.689 c 0,17.96412 -18.45334,32.52691 -41.2167,32.52691 -22.76335,0 -41.2167,-14.56279 -41.2167,-32.52691 0,-17.96411 18.45335,-32.5269 41.2167,-32.5269 22.76336,0 41.2167,14.56279 41.2167,32.5269 z"
     sodipodi:cx="329.897"
     sodipodi:cy="-217.689"
     sodipodi:rx="41.216702"
     sodipodi:ry="32.526901"
     style="fill:#9f9f9f;fill-opacity:1;stroke:none"
     transform="translate(-168.87041,256.92051)" />
  <text
     x="161.02658"
     y="32.8316"
     font-size="14.00"
     id="text191"
     style="font-size:14px;text-anchor:middle;font-family:'Times Roman,serif'">H</text>
  <text
     x="161.02658"
     y="51.831596"
     font-size="14.00"
     id="text193"
     style="font-size:14px;text-anchor:middle;font-family:'Times Roman,serif'">-0.018</text>
  <g
     class="edge"
     id="edge4"
     transform="translate(-168.87041,256.92051)">
    <title
       id="title196">9--13</title>
    <path
       style="fill:none;stroke:#000000"
       inkscape:connector-curvature="0"
       id="path198"
       d="m 287.269,-198.395 c 2.227,-1.008 4.476,-2.026 6.717,-3.04" />
  </g>
</svg>
