<?xml version="1.0" encoding="UTF-8" standalone="no"?>
<!-- Generated by graphviz version 2.26.0 (20091210.2329)
 -->

<!-- Title: G Pages: 1 -->

<svg
   xmlns:dc="http://purl.org/dc/elements/1.1/"
   xmlns:cc="http://creativecommons.org/ns#"
   xmlns:rdf="http://www.w3.org/1999/02/22-rdf-syntax-ns#"
   xmlns:svg="http://www.w3.org/2000/svg"
   xmlns="http://www.w3.org/2000/svg"
   xmlns:sodipodi="http://sodipodi.sourceforge.net/DTD/sodipodi-0.dtd"
   xmlns:inkscape="http://www.inkscape.org/namespaces/inkscape"
   width="279.47693"
   height="277.70395"
   viewBox="0 0 223.74866 222.30534"
   id="svg2"
   version="1.1"
   inkscape:version="0.48.2 r9819"
   sodipodi:docname="match_none.pdf">
  <metadata
     id="metadata211">
    <rdf:RDF>
      <cc:Work
         rdf:about="">
        <dc:format>image/svg+xml</dc:format>
        <dc:type
           rdf:resource="http://purl.org/dc/dcmitype/StillImage" />
        <dc:title></dc:title>
      </cc:Work>
    </rdf:RDF>
  </metadata>
  <defs
     id="defs209" />
  <sodipodi:namedview
     pagecolor="#ffffff"
     bordercolor="#666666"
     borderopacity="1"
     objecttolerance="10"
     gridtolerance="10"
     guidetolerance="10"
     inkscape:pageopacity="0"
     inkscape:pageshadow="2"
     inkscape:window-width="1366"
     inkscape:window-height="688"
     id="namedview207"
     showgrid="false"
     fit-margin-top="0"
     fit-margin-left="-55"
     fit-margin-right="-10"
     fit-margin-bottom="-10"
     inkscape:zoom="1.0069333"
     inkscape:cx="134.01927"
     inkscape:cy="221.70997"
     inkscape:window-x="0"
     inkscape:window-y="25"
     inkscape:window-maximized="1"
     inkscape:current-layer="svg2" />
  <path
     style="fill:none;stroke:#000000;stroke-width:1px;stroke-linecap:butt;stroke-linejoin:miter;stroke-opacity:1"
     d="M 61.796938,45.263193 50.561131,143.22538 z"
     id="path4126"
     inkscape:connector-curvature="0"
     transform="matrix(0.80059796,0,0,0.80059796,0,-0.01193802)" />
  <path
     style="fill:none;stroke:#000000;stroke-width:1px;stroke-linecap:butt;stroke-linejoin:miter;stroke-opacity:1"
     d="M 75.490578,236.27191 50.210012,142.87427 z"
     id="path4119"
     inkscape:connector-curvature="0"
     transform="matrix(0.80059796,0,0,0.80059796,0,-0.01193802)" />
  <ellipse
     cx="249.188"
     cy="-261.01099"
     rx="36.7696"
     ry="32.526901"
     id="ellipse42"
     d="m 285.9576,-261.01099 c 0,17.96412 -16.46231,32.5269 -36.7696,32.5269 -20.30729,0 -36.7696,-14.56278 -36.7696,-32.5269 0,-17.96411 16.46231,-32.5269 36.7696,-32.5269 20.30729,0 36.7696,14.56279 36.7696,32.5269 z"
     sodipodi:cx="249.188"
     sodipodi:cy="-261.01099"
     sodipodi:rx="36.7696"
     sodipodi:ry="32.526901"
     style="fill:#599855;stroke:none;fill-opacity:1"
     transform="translate(-79.59939,294.02595)" />
  <text
     x="169.58861"
     y="26.614943"
     font-size="14.00"
     id="text44"
     style="font-size:14px;text-anchor:middle;font-family:'Times Roman,serif'">H</text>
  <text
     x="169.58861"
     y="45.614952"
     font-size="14.00"
     id="text46"
     style="font-size:14px;text-anchor:middle;font-family:'Times Roman,serif'">0.074</text>
  <ellipse
     cx="208.02499"
     cy="-182.726"
     rx="36.977001"
     ry="32.526901"
     id="ellipse84"
     d="m 245.002,-182.726 c 0,17.96411 -16.55517,32.5269 -36.97701,32.5269 -20.42183,0 -36.977,-14.56279 -36.977,-32.5269 0,-17.96411 16.55517,-32.5269 36.977,-32.5269 20.42184,0 36.97701,14.56279 36.97701,32.5269 z"
     sodipodi:cx="208.02499"
     sodipodi:cy="-182.726"
     sodipodi:rx="36.977001"
     sodipodi:ry="32.526901"
     style="fill:#4dff40;stroke:none;fill-opacity:1"
     transform="translate(-79.59939,294.02595)" />
  <text
     x="128.4256"
     y="104.89995"
     font-size="14.00"
     id="text86"
     style="font-size:14px;text-anchor:middle;font-family:'Times Roman,serif'">N</text>
  <text
     x="128.4256"
     y="123.89995"
     font-size="14.00"
     id="text88"
     style="font-size:14px;text-anchor:middle;font-family:'Times Roman,serif'">-0.222</text>
  <g
     class="edge"
     id="edge21"
     transform="translate(-79.59939,294.02595)">
    <title
       id="title91">3--8</title>
    <path
       style="fill:none;stroke:#000000"
       inkscape:connector-curvature="0"
       id="path93"
       d="m 233.626,-231.415 c -3.278,6.235 -6.737,12.814 -10.017,19.051" />
  </g>
  <g
     id="g4121"
     transform="translate(56.221026,-9.2764693)">
    <ellipse
       transform="translate(-79.59939,294.02595)"
       style="fill:#9f9f9f;fill-opacity:1;stroke:none"
       sodipodi:ry="32.526901"
       sodipodi:rx="36.977001"
       sodipodi:cy="-247.327"
       sodipodi:cx="73.043503"
       d="m 110.0205,-247.327 c 0,17.96412 -16.555163,32.52691 -36.976997,32.52691 -20.421834,0 -36.977001,-14.56279 -36.977001,-32.52691 0,-17.96411 16.555167,-32.5269 36.977001,-32.5269 20.421834,0 36.976997,14.56279 36.976997,32.5269 z"
       id="ellipse98"
       ry="32.526901"
       rx="36.977001"
       cy="-247.327"
       cx="73.043503" />
    <text
       style="font-size:14px;text-anchor:middle;font-family:'Times Roman,serif'"
       id="text100"
       font-size="14.00"
       y="40.298943"
       x="-6.5558877">H</text>
    <text
       style="font-size:14px;text-anchor:middle;font-family:'Times Roman,serif'"
       id="text102"
       font-size="14.00"
       y="59.29895"
       x="-6.5558877">0.129</text>
  </g>
  <ellipse
     cx="119.611"
     cy="-179.101"
     rx="36.7696"
     ry="32.526901"
     id="ellipse107"
     d="m 156.3806,-179.101 c 0,17.96411 -16.46231,32.5269 -36.7696,32.5269 -20.307289,0 -36.7696,-14.56279 -36.7696,-32.5269 0,-17.96411 16.462311,-32.5269 36.7696,-32.5269 20.30729,0 36.7696,14.56279 36.7696,32.5269 z"
     sodipodi:cx="119.611"
     sodipodi:cy="-179.101"
     sodipodi:rx="36.7696"
     sodipodi:ry="32.526901"
     style="fill:#599855;stroke:none;fill-opacity:1"
     transform="translate(-79.59939,294.02595)" />
  <text
     x="40.011616"
     y="108.52495"
     font-size="14.00"
     id="text109"
     style="font-size:14px;text-anchor:middle;font-family:'Times Roman,serif'">C</text>
  <text
     x="40.011616"
     y="127.52495"
     font-size="14.00"
     id="text111"
     style="font-size:14px;text-anchor:middle;font-family:'Times Roman,serif'">-0.313</text>
  <g
     class="edge"
     id="edge17"
     transform="translate(-79.59939,294.02595)">
    <title
       id="title128">6--9</title>
    <path
       style="fill:none;stroke:#000000"
       inkscape:connector-curvature="0"
       id="path130"
       d="m 75.7319,-178.115 c 2.1656,-0.049 4.3439,-0.097 6.51,-0.146" />
  </g>
  <g
     id="g4112"
     transform="translate(62.016659,0.79508537)">
    <ellipse
       transform="translate(-79.59939,294.02595)"
       style="fill:#9f9f9f;fill-opacity:1;stroke:none"
       sodipodi:ry="32.526901"
       sodipodi:rx="36.977001"
       sodipodi:cy="-108.372"
       sodipodi:cx="77.106697"
       d="m 114.0837,-108.372 c 0,17.96411 -16.555169,32.5269 -36.977003,32.5269 -20.421834,0 -36.977001,-14.56279 -36.977001,-32.5269 0,-17.96411 16.555167,-32.5269 36.977001,-32.5269 20.421834,0 36.977003,14.56279 36.977003,32.5269 z"
       id="ellipse135"
       ry="32.526901"
       rx="36.977001"
       cy="-108.372"
       cx="77.106697" />
    <text
       style="font-size:14px;text-anchor:middle;font-family:'Times Roman,serif'"
       id="text137"
       font-size="14.00"
       y="179.25394"
       x="-2.4926937">H</text>
    <text
       style="font-size:14px;text-anchor:middle;font-family:'Times Roman,serif'"
       id="text139"
       font-size="14.00"
       y="198.25403"
       x="-2.4926937">0.129</text>
  </g>
  <g
     class="edge"
     id="edge13"
     transform="translate(-79.59939,294.02595)">
    <title
       id="title147">8--9</title>
    <path
       style="fill:none;stroke:#000000"
       inkscape:connector-curvature="0"
       id="path149"
       d="m 171.042,-181.21 c -4.732,0.194 -9.578,0.393 -14.312,0.587" />
  </g>
  <ellipse
     cx="255.246"
     cy="-108.1"
     rx="41.216702"
     ry="32.526901"
     id="ellipse154"
     d="m 296.4627,-108.1 c 0,17.964113 -18.45334,32.526903 -41.2167,32.526903 -22.76335,0 -41.2167,-14.56279 -41.2167,-32.526903 0,-17.96411 18.45335,-32.5269 41.2167,-32.5269 22.76336,0 41.2167,14.56279 41.2167,32.5269 z"
     sodipodi:cx="255.246"
     sodipodi:cy="-108.1"
     sodipodi:rx="41.216702"
     sodipodi:ry="32.526901"
     style="fill:#cd2020;stroke:none;fill-opacity:1"
     transform="translate(-79.59939,294.02595)" />
  <text
     x="175.64662"
     y="179.52594"
     font-size="14.00"
     id="text156"
     style="font-size:14px;text-anchor:middle;font-family:'Times Roman,serif'">C</text>
  <text
     x="175.64662"
     y="198.52573"
     font-size="14.00"
     id="text158"
     style="font-size:14px;text-anchor:middle;font-family:'Times Roman,serif'">-0.313</text>
  <g
     class="edge"
     id="edge11"
     transform="translate(-79.59939,294.02595)">
    <title
       id="title161">8--10</title>
    <path
       style="fill:none;stroke:#000000"
       inkscape:connector-curvature="0"
       id="path163"
       d="m 226.147,-154.087 c 3.433,5.426 7.03,11.11 10.479,16.56" />
  </g>
  <g
     class="edge"
     id="edge9"
     transform="translate(-79.59939,294.02595)">
    <title
       id="title175">10--11</title>
    <path
       style="fill:none;stroke:#000000"
       inkscape:connector-curvature="0"
       id="path177"
       d="m 273.461,-78.9548 c 2.104,3.3658 4.25,6.7998 6.356,10.169" />
  </g>
  <g
     class="edge"
     id="edge7"
     transform="translate(-79.59939,294.02595)">
    <title
       id="title189">10--12</title>
    <path
       style="fill:none;stroke:#000000"
       inkscape:connector-curvature="0"
       id="path191"
       d="m 240.642,-77.3267 c -2.058,4.3346 -4.172,8.7906 -6.229,13.124" />
  </g>
  <g
     class="edge"
     id="edge13-6"
     transform="translate(60.212644,367.64865)">
    <title
       id="title147-2">8--9</title>
    <path
       style="fill:none;stroke:#000000"
       inkscape:connector-curvature="0"
       id="path149-1"
       d="m 171.042,-181.21 c -4.732,0.194 -9.578,0.393 -14.312,0.587" />
  </g>
</svg>
