<?xml version="1.0" encoding="UTF-8" standalone="no"?>
<!-- Created with Inkscape (http://www.inkscape.org/) -->

<svg
   xmlns:osb="http://www.openswatchbook.org/uri/2009/osb"
   xmlns:dc="http://purl.org/dc/elements/1.1/"
   xmlns:cc="http://creativecommons.org/ns#"
   xmlns:rdf="http://www.w3.org/1999/02/22-rdf-syntax-ns#"
   xmlns:svg="http://www.w3.org/2000/svg"
   xmlns="http://www.w3.org/2000/svg"
   xmlns:sodipodi="http://sodipodi.sourceforge.net/DTD/sodipodi-0.dtd"
   xmlns:inkscape="http://www.inkscape.org/namespaces/inkscape"
   id="svg2"
   version="1.1"
   inkscape:version="0.48.2 r9819"
   width="324.02344"
   height="307.8125"
   xml:space="preserve"
   sodipodi:docname="match_target.pdf"><metadata
     id="metadata8"><rdf:RDF><cc:Work
         rdf:about=""><dc:format>image/svg+xml</dc:format><dc:type
           rdf:resource="http://purl.org/dc/dcmitype/StillImage" /><dc:title></dc:title></cc:Work></rdf:RDF></metadata><defs
     id="defs6"><linearGradient
       id="linearGradient5370"
       osb:paint="solid"><stop
         style="stop-color:#a5e583;stop-opacity:1;"
         offset="0"
         id="stop5372" /></linearGradient></defs><sodipodi:namedview
     pagecolor="#ffffff"
     bordercolor="#666666"
     borderopacity="1"
     objecttolerance="10"
     gridtolerance="10"
     guidetolerance="10"
     inkscape:pageopacity="0"
     inkscape:pageshadow="2"
     inkscape:window-width="1366"
     inkscape:window-height="688"
     id="namedview4"
     showgrid="false"
     fit-margin-top="0"
     fit-margin-left="0"
     fit-margin-right="0"
     fit-margin-bottom="0"
     inkscape:zoom="0.83688128"
     inkscape:cx="58.829487"
     inkscape:cy="165.07344"
     inkscape:window-x="0"
     inkscape:window-y="25"
     inkscape:window-maximized="1"
     inkscape:current-layer="g10" /><g
     id="g10"
     inkscape:groupmode="layer"
     inkscape:label="molecule"
     transform="matrix(1.25,0,0,-1.25,-7.4609375,465.74219)"><path
       inkscape:connector-curvature="0"
       id="path28"
       style="fill:#599855;fill-opacity:1;fill-rule:nonzero;stroke:#caff70;stroke-width:0;stroke-linecap:butt;stroke-linejoin:miter;stroke-miterlimit:4;stroke-opacity:1;stroke-dasharray:none"
       d="m 180.266,340.039 c 0,-17.945 -16.536,-32.492 -36.938,-32.492 -20.398,0 -36.937,14.547 -36.937,32.492 0,17.945 16.539,32.492 36.937,32.492 20.402,0 36.938,-14.547 36.938,-32.492 z" /><text
       id="text30"
       transform="scale(1,-1)"
       x="137.80067"
       y="-343.85623"><tspan
         id="tspan32"
         y="-343.85623"
         x="137.80067"
         style="font-size:13.98512173px;font-variant:normal;font-weight:normal;writing-mode:lr-tb;fill:#000000;fill-opacity:1;fill-rule:nonzero;stroke:none;font-family:Droid Serif;-inkscape-font-specification:DroidSerif">H</tspan><tspan
         id="tspan34"
         sodipodi:role="line"
         y="-326.37482"
         x="129.61993 137.43761 141.43736 149.25504"
         style="font-size:13.98512173px;font-variant:normal;font-weight:normal;writing-mode:lr-tb;fill:#000000;fill-opacity:1;fill-rule:nonzero;stroke:none;font-family:Droid Serif;-inkscape-font-specification:DroidSerif">0.37</tspan></text>
<path
       inkscape:connector-curvature="0"
       id="path36"
       style="fill:#4dff40;fill-opacity:1;fill-rule:nonzero;stroke:#caff70;stroke-width:0;stroke-linecap:butt;stroke-linejoin:miter;stroke-miterlimit:4;stroke-opacity:1;stroke-dasharray:none"
       d="m 156.699,263.211 c 0,-17.945 -16.535,-32.492 -36.937,-32.492 -20.399,0 -36.938,14.547 -36.938,32.492 0,17.945 16.539,32.492 36.938,32.492 20.402,0 36.937,-14.547 36.937,-32.492 z" /><text
       id="text38"
       transform="scale(1,-1)"
       x="114.56488"
       y="-267.02823"><tspan
         id="tspan40"
         y="-267.02823"
         x="114.56488"
         style="font-size:13.98512173px;font-variant:normal;font-weight:normal;writing-mode:lr-tb;fill:#000000;fill-opacity:1;fill-rule:nonzero;stroke:none;font-family:Droid Serif;-inkscape-font-specification:DroidSerif">N</tspan><tspan
         id="tspan42"
         sodipodi:role="line"
         y="-249.54683"
         x="100.10175 104.43713 112.25481 116.25456 124.07224 131.88992"
         style="font-size:13.98512173px;font-variant:normal;font-weight:normal;writing-mode:lr-tb;fill:#000000;fill-opacity:1;fill-rule:nonzero;stroke:none;font-family:Droid Serif;-inkscape-font-specification:DroidSerif">-1.068</tspan></text>
<path
       inkscape:connector-curvature="0"
       id="path44"
       style="fill:none;stroke:#000000;stroke-width:0.99893701;stroke-linecap:butt;stroke-linejoin:miter;stroke-miterlimit:4;stroke-opacity:1;stroke-dasharray:none"
       d="m 133.609,308.348 c -1.371,-4.465 -2.777,-9.055 -4.148,-13.516" /><path
       inkscape:connector-curvature="0"
       id="path46"
       style="fill:#9f9f9f;fill-opacity:1;fill-rule:nonzero;stroke:#caff70;stroke-width:0;stroke-linecap:butt;stroke-linejoin:miter;stroke-miterlimit:4;stroke-opacity:1;stroke-dasharray:none"
       d="m 265.125,231.145 c 0,-17.946 -16.539,-32.493 -36.937,-32.493 -20.403,0 -36.938,14.547 -36.938,32.493 0,17.945 16.535,32.492 36.938,32.492 20.398,0 36.937,-14.547 36.937,-32.492 z" /><text
       id="text48"
       transform="scale(1,-1)"
       x="222.56409"
       y="-234.96173"><tspan
         id="tspan50"
         y="-234.96173"
         x="222.56409"
         style="font-size:13.98512173px;font-variant:normal;font-weight:normal;writing-mode:lr-tb;fill:#000000;fill-opacity:1;fill-rule:nonzero;stroke:none;font-family:Droid Serif;-inkscape-font-specification:DroidSerif">H</tspan><tspan
         id="tspan52"
         sodipodi:role="line"
         y="-217.48033"
         x="208.30582 212.6412 220.45889 224.45863 232.27631 240.09399"
         style="font-size:13.98512173px;font-variant:normal;font-weight:normal;writing-mode:lr-tb;fill:#000000;fill-opacity:1;fill-rule:nonzero;stroke:none;font-family:Droid Serif;-inkscape-font-specification:DroidSerif">-0.044</tspan></text>
<path
       inkscape:connector-curvature="0"
       id="path54"
       style="fill:#599855;fill-opacity:1;fill-rule:nonzero;stroke:#caff70;stroke-width:0;stroke-linecap:butt;stroke-linejoin:miter;stroke-miterlimit:4;stroke-opacity:1;stroke-dasharray:none"
       d="m 194.812,188.125 c 0,-17.945 -16.445,-32.492 -36.73,-32.492 -20.285,0 -36.73,14.547 -36.73,32.492 0,17.945 16.445,32.492 36.73,32.492 20.285,0 36.73,-14.547 36.73,-32.492 z" /><text
       id="text56"
       transform="scale(1,-1)"
       x="153.83456"
       y="-191.87053"><tspan
         id="tspan58"
         y="-191.87053"
         x="153.83456"
         style="font-size:13.98512173px;font-variant:normal;font-weight:normal;writing-mode:lr-tb;fill:#000000;fill-opacity:1;fill-rule:nonzero;stroke:none;font-family:Droid Serif;-inkscape-font-specification:DroidSerif">C</tspan><tspan
         id="tspan60"
         sodipodi:role="line"
         y="-174.38913"
         x="140.49133 148.30901 152.30876 160.12643 167.94412"
         style="font-size:13.98512173px;font-variant:normal;font-weight:normal;writing-mode:lr-tb;fill:#000000;fill-opacity:1;fill-rule:nonzero;stroke:none;font-family:Droid Serif;-inkscape-font-specification:DroidSerif">0.416</tspan></text>
<path
       inkscape:connector-curvature="0"
       id="path62"
       style="fill:none;stroke:#000000;stroke-width:0.99893701;stroke-linecap:butt;stroke-linejoin:miter;stroke-miterlimit:4;stroke-opacity:1;stroke-dasharray:none"
       d="m 197.641,212.402 c -2.95,-1.812 -5.946,-3.652 -8.899,-5.464" /><path
       inkscape:connector-curvature="0"
       id="path64"
       style="fill:#9f9f9f;fill-opacity:1;fill-rule:nonzero;stroke:#caff70;stroke-width:0;stroke-linecap:butt;stroke-linejoin:miter;stroke-miterlimit:4;stroke-opacity:1;stroke-dasharray:none"
       d="m 118.242,158.871 c 0,-17.945 -16.539,-32.492 -36.937,-32.492 -20.403,0 -36.938,14.547 -36.938,32.492 0,17.945 16.535,32.492 36.938,32.492 20.398,0 36.937,-14.547 36.937,-32.492 z" /><text
       id="text66"
       transform="scale(1,-1)"
       x="75.681084"
       y="-162.68823"><tspan
         id="tspan68"
         y="-162.68823"
         x="75.681084"
         style="font-size:13.98512173px;font-variant:normal;font-weight:normal;writing-mode:lr-tb;fill:#000000;fill-opacity:1;fill-rule:nonzero;stroke:none;font-family:Droid Serif;-inkscape-font-specification:DroidSerif">H</tspan><tspan
         id="tspan70"
         sodipodi:role="line"
         y="-145.20683"
         x="61.422821 65.758209 73.57589 77.575638 85.393318 93.210999"
         style="font-size:13.98512173px;font-variant:normal;font-weight:normal;writing-mode:lr-tb;fill:#000000;fill-opacity:1;fill-rule:nonzero;stroke:none;font-family:Droid Serif;-inkscape-font-specification:DroidSerif">-0.044</tspan></text>
<path
       inkscape:connector-curvature="0"
       id="path72"
       style="fill:none;stroke:#000000;stroke-width:0.99893701;stroke-linecap:butt;stroke-linejoin:miter;stroke-miterlimit:4;stroke-opacity:1;stroke-dasharray:none"
       d="m 115.652,171.957 c 2.715,1.035 5.457,2.078 8.172,3.113" /><path
       inkscape:connector-curvature="0"
       id="path74"
       style="fill:none;stroke:#000000;stroke-width:0.99893701;stroke-linecap:butt;stroke-linejoin:miter;stroke-miterlimit:4;stroke-opacity:1;stroke-dasharray:none"
       d="m 134.906,233.535 c 2.594,-5.082 5.293,-10.367 7.891,-15.457" /><path
       inkscape:connector-curvature="0"
       id="path76"
       style="fill:#599855;fill-opacity:1;fill-rule:nonzero;stroke:#caff70;stroke-width:0;stroke-linecap:butt;stroke-linejoin:miter;stroke-miterlimit:4;stroke-opacity:1;stroke-dasharray:none"
       d="m 79.891,288.219 c 0,-17.946 -16.536,-32.492 -36.938,-32.492 -20.398,0 -36.937,14.546 -36.937,32.492 0,17.945 16.539,32.492 36.937,32.492 20.402,0 36.938,-14.547 36.938,-32.492 z" /><text
       id="text78"
       transform="scale(1,-1)"
       x="37.425686"
       y="-292.03622"><tspan
         id="tspan80"
         y="-292.03622"
         x="37.425686"
         style="font-size:13.98512173px;font-variant:normal;font-weight:normal;writing-mode:lr-tb;fill:#000000;fill-opacity:1;fill-rule:nonzero;stroke:none;font-family:Droid Serif;-inkscape-font-specification:DroidSerif">H</tspan><tspan
         id="tspan82"
         sodipodi:role="line"
         y="-274.55481"
         x="29.244936 37.062618 41.062363 48.880047"
         style="font-size:13.98512173px;font-variant:normal;font-weight:normal;writing-mode:lr-tb;fill:#000000;fill-opacity:1;fill-rule:nonzero;stroke:none;font-family:Droid Serif;-inkscape-font-specification:DroidSerif">0.37</tspan></text>
<path
       inkscape:connector-curvature="0"
       id="path84"
       style="fill:none;stroke:#000000;stroke-width:0.99893701;stroke-linecap:butt;stroke-linejoin:miter;stroke-miterlimit:4;stroke-opacity:1;stroke-dasharray:none"
       d="m 84.953,274.543 c -2.379,0.777 -4.781,1.559 -7.164,2.332" /><path
       inkscape:connector-curvature="0"
       id="path94"
       style="fill:none;stroke:#000000;stroke-width:0.99893701;stroke-linecap:butt;stroke-linejoin:miter;stroke-miterlimit:4;stroke-opacity:1;stroke-dasharray:none"
       d="m 172.406,157.98 c 2.621,-5.519 5.36,-11.277 7.985,-16.804" /></g></svg>